#N canvas 249 208 1338 801 16;
#X obj 37 92 osc~;
#X obj 35 -19 mtof;
#X obj 38 -38 hsl 128 15 0 137 0 0 empty empty empty -2 -8 0 10 -262144
-1 -1 0 1;
#X obj 37 67 nbx 5 22 0 30000 0 0 empty empty empty 0 -8 0 20 -228856
-258113 -1 0 256;
#X obj 244 188 readsf~;
#X obj 244 216 *~;
#X obj 306 246 env~;
#X obj 307 302 vu 15 120 empty empty -1 -8 0 10 -66577 -1 1 0;
#X obj 306 272 - 100;
#X obj 244 249 dac~;
#X msg 430 -71 \; pd dsp \$1;
#X obj 431 -93 tgl 20 0 empty empty DSP_on/off 24 10 0 10 -191407 -258113
-1 1 1;
#X obj 244 82 openpanel;
#X obj 231 57 bng 15 250 50 0 empty empty empty 17 7 0 10 -262144 -1
-1;
#X msg 244 108 open \$1;
#X obj 244 135 t b a;
#X obj 36 39 line;
#X msg 36 10 \$1 100;
#X msg 244 161 start;
#X obj 350 -47 vsl 15 128 0 1 0 0 empty empty empty 0 -9 0 10 -262144
-1 -1 3600 1;
#X obj 350 118 line;
#X obj 349 152 nbx 5 22 0 30000 0 0 empty empty empty 0 -8 0 20 -228856
-258113 -1 0.283465 256;
#X obj 834 140 hsl 128 15 0 127 0 0 empty empty empty -2 -8 0 10 -262144
-1 -1 10400 1;
#X obj 591 285 dac~ 1 2;
#X obj 594 12 *~;
#X obj 665 -85 tgl 15 0 empty empty empty 17 7 0 10 -262144 -1 -1 0
1;
#X obj 744 -38 noise~;
#X obj 747 15 *~;
#X obj 774 -10 != 1;
#X obj 37 142 *~;
#X obj 64 121 tgl 15 0 empty empty empty 17 7 0 10 -262144 -1 -1 0
1;
#X obj 593 62 *~;
#X obj 620 41 tgl 15 0 empty empty empty 17 7 0 10 -262144 -1 -1 1
1;
#X obj 1044 322 *~;
#X obj 1081 323 tgl 24 0 empty empty empty 17 7 0 10 -258113 -1 -1
1 1;
#X obj 1040 235 noise~;
#X obj 1122 251 line;
#X obj 1041 280 *~;
#X obj 1123 168 tgl 15 0 empty empty empty 17 7 0 10 -262144 -1 -1
0 1;
#X obj 1123 188 metro 400;
#X msg 1122 219 1 \, 0 100;
#X floatatom 1161 123 5 0 0 0 - - -;
#X obj 694 82 lop~ 100;
#X obj 527 129 hip~ 1000;
#X obj 37 173 dac~;
#X text 45 -120 Audio Qualities:;
#X text 38 -59 pitch;
#X text 305 216 Volume;
#X obj 594 -36 phasor~ 440;
#X obj 592 235 *~;
#X obj 707 212 line~;
#X msg 708 174 \$1 20;
#X obj 799 204 / 127;
#X obj 709 124 bp~ 400 10;
#X text 799 53 color/spectrum;
#X obj 1045 505 dac~;
#X text 903 491 location;
#X obj 1045 461 *~;
#X obj 1102 462 *~;
#X obj 1174 394 - 1;
#X obj 1175 422 * -1;
#X msg 1172 326 \$1 20;
#X obj 1263 356 / 127;
#X obj 1171 364 line;
#X obj 1265 332 hsl 128 15 0 127 0 0 empty empty empty -2 -8 0 10 -262144
-1 -1 6600 1;
#X floatatom 1175 450 5 0 0 0 - - -;
#X floatatom 1112 365 5 0 0 0 - - -;
#X obj 1162 152 t b f;
#X msg 1040 193 0;
#N canvas 0 23 454 316 pan~ 0;
#X obj 43 169 *~;
#X obj 100 170 *~;
#X obj 172 102 - 1;
#X obj 173 130 * -1;
#X msg 170 34 \$1 20;
#X obj 261 64 / 127;
#X obj 169 72 line;
#X floatatom 173 158 5 0 0 0 - - -;
#X obj 261 32 inlet;
#X obj 43 224 outlet~;
#X obj 127 225 outlet~;
#X obj 42 30 inlet~;
#X connect 0 0 9 0;
#X connect 1 0 10 0;
#X connect 2 0 3 0;
#X connect 3 0 7 0;
#X connect 3 0 0 1;
#X connect 4 0 6 0;
#X connect 5 0 4 0;
#X connect 6 0 2 0;
#X connect 6 0 1 1;
#X connect 8 0 5 0;
#X connect 11 0 0 0;
#X connect 11 0 1 0;
#X restore 795 389 pd pan~;
#X text 341 179 only uncompressed audiofiles;
#X msg 350 89 \$1 50;
#X obj 322 -93 loadbang;
#X connect 0 0 29 0;
#X connect 1 0 17 0;
#X connect 2 0 1 0;
#X connect 3 0 0 0;
#X connect 4 0 5 0;
#X connect 5 0 6 0;
#X connect 5 0 9 0;
#X connect 5 0 9 1;
#X connect 6 0 8 0;
#X connect 8 0 7 0;
#X connect 11 0 10 0;
#X connect 12 0 14 0;
#X connect 13 0 12 0;
#X connect 14 0 15 0;
#X connect 15 0 18 0;
#X connect 15 1 4 0;
#X connect 16 0 3 0;
#X connect 17 0 16 0;
#X connect 18 0 4 0;
#X connect 19 0 71 0;
#X connect 20 0 5 1;
#X connect 20 0 21 0;
#X connect 22 0 52 0;
#X connect 24 0 31 0;
#X connect 25 0 24 1;
#X connect 25 0 28 0;
#X connect 26 0 27 0;
#X connect 27 0 31 0;
#X connect 28 0 27 1;
#X connect 29 0 44 0;
#X connect 29 0 44 1;
#X connect 30 0 29 1;
#X connect 32 0 31 1;
#X connect 33 0 57 0;
#X connect 33 0 58 0;
#X connect 34 0 33 1;
#X connect 35 0 37 0;
#X connect 36 0 37 1;
#X connect 37 0 33 0;
#X connect 38 0 39 0;
#X connect 39 0 40 0;
#X connect 40 0 36 0;
#X connect 41 0 67 0;
#X connect 42 0 49 0;
#X connect 43 0 49 0;
#X connect 48 0 24 0;
#X connect 49 0 23 0;
#X connect 49 0 23 1;
#X connect 50 0 49 1;
#X connect 51 0 50 0;
#X connect 52 0 51 0;
#X connect 53 0 49 0;
#X connect 57 0 55 0;
#X connect 58 0 55 1;
#X connect 59 0 60 0;
#X connect 60 0 65 0;
#X connect 60 0 57 1;
#X connect 61 0 63 0;
#X connect 62 0 61 0;
#X connect 63 0 59 0;
#X connect 63 0 66 0;
#X connect 63 0 58 1;
#X connect 64 0 62 0;
#X connect 67 0 39 0;
#X connect 67 1 39 1;
#X connect 71 0 20 0;
