#N canvas 893 47 617 524 10;
#X obj 44 45 key;
#X obj 118 44 keyup, f 6;
#X obj 130 132 print key;
#X obj 118 86 print keyup;
#X obj 227 43 keyname;
#X floatatom 227 66 5 0 0 0 - - -;
#X symbolatom 268 67 10 0 0 0 - - -;
#X obj 44 76 spigot;
#X obj 78 45 tgl 15 0 empty empty empty 17 7 0 10 -262144 -1 -1 1 1
;
#X obj 46 104 change;
#X obj 46 133 print onekey;
#X obj 227 136 mousestate;
#X connect 0 0 7 0;
#X connect 1 0 3 0;
#X connect 4 0 5 0;
#X connect 4 1 6 0;
#X connect 7 0 9 0;
#X connect 7 0 2 0;
#X connect 8 0 7 1;
#X connect 9 0 10 0;
