#N canvas 182 78 800 534 16;
#X obj 299 126 mousestate;
#X msg 160 106 poll;
#X obj 158 62 loadbang;
#X msg 26 113 \; pd dsp 1;
#X obj 125 254 osc~ 500;
#X obj 128 332 *~;
#X obj 129 380 dac~;
#X text 88 412 assesment put a line object in to remove the click;
#X obj 126 288 *~;
#X floatatom 346 160 5 0 0 0 - - -;
#X obj 349 302 * -1;
#X text 392 264 vertical screen resolution;
#X obj 348 267 - 1;
#X floatatom 421 171 5 0 0 0 - - -;
#X text 358 200 horizontal screen resolution;
#X obj 281 235 * 127;
#X obj 278 269 mtof;
#X obj 51 256 line;
#X msg 49 223 \$1 20;
#X floatatom 265 326 5 0 0 0 - - -;
#X text 108 219 smoothing out;
#X obj 188 352 line;
#X msg 186 319 \$1 100;
#X obj 282 201 / 1280;
#X obj 350 236 / 720;
#X connect 0 0 22 0;
#X connect 0 1 13 0;
#X connect 0 1 23 0;
#X connect 0 2 9 0;
#X connect 1 0 0 0;
#X connect 2 0 1 0;
#X connect 2 0 3 0;
#X connect 4 0 8 0;
#X connect 5 0 6 0;
#X connect 5 0 6 1;
#X connect 8 0 5 0;
#X connect 9 0 24 0;
#X connect 10 0 8 1;
#X connect 12 0 10 0;
#X connect 15 0 16 0;
#X connect 16 0 18 0;
#X connect 16 0 19 0;
#X connect 17 0 4 0;
#X connect 18 0 17 0;
#X connect 21 0 5 1;
#X connect 22 0 21 0;
#X connect 23 0 15 0;
#X connect 24 0 12 0;
