#N canvas 287 41 909 629 24;
#X obj 173 58 adc~;
#X obj 177 129 env~;
#X obj 86 182 print;
#X obj 365 212 vu 15 120 empty empty -1 -8 0 10 -66577 -1 1 0;
#X obj 364 166 - 100;
#X text 242 115 loudness of signal;
#X obj 92 306 osc~ 400;
#X obj 93 407 *~;
#X obj 552 310 / 100;
#X floatatom 559 364 5 0 0 0 - - -;
#X obj 97 472 dac~;
#X obj 171 361 tgl 25 0 empty empty empty 17 7 0 10 -262144 -1 -1 1
1;
#X obj 137 251 mtof;
#X obj 235 246 > 60;
#X connect 0 0 1 0;
#X connect 1 0 2 0;
#X connect 1 0 4 0;
#X connect 1 0 12 0;
#X connect 1 0 13 0;
#X connect 4 0 3 0;
#X connect 6 0 7 0;
#X connect 7 0 10 0;
#X connect 7 0 10 1;
#X connect 8 0 9 0;
#X connect 11 0 7 1;
#X connect 12 0 6 0;
#X connect 13 0 7 1;
