#N canvas 0 23 800 555 10;
#X text 28 12 Sound and Interaction \, Objects \, externals and abstractions
we used so far. If You are uncertain aout what they do look at the
help file;
#X obj 26 209 vsl 15 128 0 127 0 0 empty empty empty 0 -9 0 10 -262144
-1 -1 0 1;
#X obj 98 330 hsl 128 15 0 127 0 0 empty empty empty -2 -8 0 10 -262144
-1 -1 0 1;
#X floatatom 95 350 5 0 0 0 - - -;
#X obj 26 184 bng 15 250 50 0 empty empty empty 17 7 0 10 -262144 -1
-1;
#X obj 27 348 print VS;
#X msg 102 266 Hiho;
#X obj 103 290 print message;
#X obj 32 64 *;
#X obj 32 89 /;
#N canvas 0 22 450 278 (subpatch) 0;
#X array einarray 18 float 1;
#A 0 0.61428 0.728564 0.785707 0.828563 0.842849 0.87142 0.87142 0.857134
0.842849 0.671422 0.571423 0.414282 0.328569 0.199998 0.0571429 -0.314282
-0.857133 -1.15713;
#X coords 0 1 18 -1 200 140 1;
#X restore 398 238 graph;
#N canvas 0 22 450 278 (subpatch) 0;
#X array zweiarray 8 float 3;
#A 0 40.8205 38.1 87.9941 102.508 66.2212 83.4574 96.1586 113.395;
#X coords 0 0 8 127 200 140 1 0 0;
#X restore 400 407 graph;
#X obj 404 588 array get zweiarray;
#X msg 405 566 bang;
#X obj 402 613 print;
#X obj 68 110 r cms;
#X floatatom 66 132 5 0 0 0 - - -;
#X floatatom 69 63 5 0 0 0 - - -;
#X obj 68 84 s cms;
#X obj 89 223 dac~;
#X obj 91 192 adc~;
#X obj 147 67 *~;
#X obj 132 491 spigot;
#X obj 34 489 route 1 2 3 4;
#X obj 34 461 select 1 2 3 4;
#X obj 33 522 int;
#X obj 618 246 tabread einarray;
#X obj 617 270 tabwrite einarray;
#X obj 617 293 soundfiler;
#X obj 41 593 expr;
#X obj 134 223 snapshot~;
#X obj 132 194 sig~;
#X obj 223 103 inlet;
#X obj 223 133 outlet;
#X obj 277 133 outlet~;
#X obj 277 103 inlet~;
#X obj 372 101 sigmund~;
#X obj 135 461 moses;
#X obj 374 134 env~;
#X obj 225 188 mtof;
#X obj 242 332 tgl 30 0 empty empty empty 17 7 0 10 -262144 -1 -1 0
1;
#X obj 474 100 osc~;
#X obj 472 126 phasor~;
#X obj 295 244 vu 15 120 empty empty -1 -8 0 10 -66577 -1 1 0;
#X obj 423 19 key;
#X obj 452 20 keyup;
#X obj 494 20 keyname;
#X obj 422 55 >;
#X obj 370 176 line;
#X obj 370 202 line~;
#X obj 424 200 trigger b f;
#X obj 424 176 pack f f f;
#X obj 228 64 loadbang;
#X obj 93 594 mousestate;
#X obj 590 101 readsf~;
#X obj 511 202 delay 100;
#X obj 650 101 openpanel;
#X obj 516 99 noise~;
#X obj 724 101 hip~;
#X obj 727 125 lop~;
#X obj 131 519 change;
#X obj 156 351 guiobjects;
#X obj 200 463 random 128;
#X obj 156 378 arduino;
#X obj 455 616 unpack f f f f f f f f;
#X floatatom 455 636 5 0 0 0 - - -;
#X floatatom 474 653 5 0 0 0 - - -;
#X floatatom 493 672 5 0 0 0 - - -;
#X floatatom 510 690 5 0 0 0 - - -;
#X floatatom 529 640 5 0 0 0 - - -;
#X floatatom 548 657 5 0 0 0 - - -;
#X floatatom 567 676 5 0 0 0 - - -;
#X floatatom 584 694 5 0 0 0 - - -;
#X obj 582 201 pipe;
#X obj 224 215 ftom;
#X connect 1 0 5 0;
#X connect 2 0 3 0;
#X connect 4 0 1 0;
#X connect 6 0 7 0;
#X connect 12 0 14 0;
#X connect 12 0 64 0;
#X connect 13 0 12 0;
#X connect 15 0 16 0;
#X connect 17 0 18 0;
#X connect 64 0 65 0;
#X connect 64 1 66 0;
#X connect 64 2 67 0;
#X connect 64 3 68 0;
#X connect 64 4 69 0;
#X connect 64 5 70 0;
#X connect 64 6 71 0;
#X connect 64 7 72 0;
