#N canvas 2058 -85 721 436 10;
#X obj 47 34 tgl 15 0 empty empty empty 17 7 0 10 -262144 -1 -1 1 1
;
#X msg 124 103 1;
#X obj 48 78 t b b;
#X obj 124 130 print atoms;
#X obj 48 103 random 256;
#X obj 49 153 repack 2;
#X obj 51 197 unpack f f;
#X floatatom 51 226 5 0 0 0 - - -;
#X floatatom 108 225 5 0 0 0 - - -;
#X text 123 152 use the zexy library to pack two following items into
a list;
#X obj 160 197 route 1;
#X floatatom 161 224 5 0 0 0 - - -;
#X msg 223 197 set \$1 \$2;
#X msg 223 222 1 154;
#X obj 113 327 unpack f f;
#X floatatom 113 356 5 0 0 0 - - -;
#X floatatom 170 355 5 0 0 0 - - -;
#X obj 222 327 route 1;
#X floatatom 223 354 5 0 0 0 - - -;
#X msg 285 327 set \$1 \$2;
#X msg 285 352 1 213;
#X obj 111 283 pack f f;
#X obj 48 55 metro 1000;
#X obj 331 237 unpack f f;
#X floatatom 331 266 5 0 0 0 - - -;
#X floatatom 388 265 5 0 0 0 - - -;
#X obj 440 237 route 1;
#X floatatom 441 264 5 0 0 0 - - -;
#X msg 503 237 set \$1 \$2;
#X msg 503 262 154 1;
#X obj 331 205 pack f f;
#X text 410 203 reverse;
#X text 377 325 later;
#X connect 0 0 22 0;
#X connect 1 0 3 0;
#X connect 1 0 5 0;
#X connect 1 0 30 1;
#X connect 1 0 21 0;
#X connect 2 0 4 0;
#X connect 2 1 1 0;
#X connect 4 0 3 0;
#X connect 4 0 5 0;
#X connect 4 0 30 0;
#X connect 4 0 21 1;
#X connect 5 0 6 0;
#X connect 5 0 10 0;
#X connect 5 0 12 0;
#X connect 6 0 7 0;
#X connect 6 1 8 0;
#X connect 10 0 11 0;
#X connect 12 0 13 0;
#X connect 14 0 15 0;
#X connect 14 1 16 0;
#X connect 17 0 18 0;
#X connect 19 0 20 0;
#X connect 21 0 14 0;
#X connect 21 0 17 0;
#X connect 21 0 19 0;
#X connect 22 0 2 0;
#X connect 23 0 24 0;
#X connect 23 1 25 0;
#X connect 26 0 27 0;
#X connect 28 0 29 0;
#X connect 30 0 23 0;
#X connect 30 0 26 0;
#X connect 30 0 28 0;
