#N canvas 621 60 450 300 10;
#X obj 261 127 arduino;
#X msg 210 57 devices;
#X msg 310 45 open 1;
#X obj 304 164 print;
#X msg 329 106 digital 8 1;
#X msg 359 84 pinMode 8 1;
#X msg 339 130 digital 8 0;
#X connect 0 1 3 0;
#X connect 1 0 0 0;
#X connect 2 0 0 0;
#X connect 4 0 0 0;
#X connect 5 0 0 0;
#X connect 6 0 0 0;
