#N canvas 1051 128 788 847 10;
#X obj 59 319 arduino;
#X msg 160 85 devices;
#X msg 155 166 open \$1, f 8;
#X text 239 34 1 make sure You have compiled the actual Firmata to
Your Arduino Board;
#X msg 59 192 close;
#X msg 155 212 firmware;
#X obj 155 143 hradio 15 1 0 8 empty empty empty 0 -8 0 10 -262144
-1 -1 1;
#X text 238 84 2 see what ports are there;
#X text 289 144 3 open the appropriate port (0 to 7);
#X text 231 217 4 Check the Firmaware;
#X text 361 294 <- configure pins for different modes;
#N canvas 271 438 525 562 PIN_MODES 0;
#X text 16 35 Most pins of the Arduino board support different modes.
You may need to tell the Arduino in which mode you intend to use a
certain pin. This is achieved with the 'pinMode' command:;
#X msg 45 111 pinMode <pin#> <mode>;
#X msg 18 252 pinMode 11 output;
#X msg 18 229 pinMode 11 input;
#X msg 18 275 pinMode 16 analog;
#X msg 18 298 pinMode 11 pwm;
#X msg 18 321 pinMode 11 servo;
#X msg 168 229 pinMode 11 0;
#X msg 168 252 pinMode 11 1;
#X msg 168 275 pinMode 16 2;
#X msg 168 298 pinMode 11 3;
#X msg 168 321 pinMode 11 4;
#X text 287 229 digital input;
#X text 287 253 digital output;
#X text 287 276 analog input;
#X text 287 299 pulse width modulation (output);
#X text 287 321 servo (output);
#X text 15 366 SET PIN MODE;
#X text 15 13 PIN MODES;
#X obj 18 391 vradio 15 1 0 5 empty empty empty 0 -8 0 10 -228856 -1
-1 0;
#X text 37 390 input;
#X text 37 405 output;
#X text 37 420 analog;
#X text 37 435 pwm;
#X text 37 450 servo;
#X text 103 501 <-- COMMAND;
#X obj 117 452 nbx 3 14 -1e+37 1e+37 0 0 empty empty pin_No. 40 6 0
10 -228856 -1 -1 0 256;
#N canvas 101 162 296 179 pinMode_______ 0;
#X obj 32 22 inlet;
#X obj 32 121 outlet;
#X obj 162 25 inlet;
#X obj 32 69 pack f f;
#X msg 32 98 set pinMode \$2 \$1 \, bang;
#X connect 0 0 3 0;
#X connect 2 0 3 1;
#X connect 3 0 4 0;
#X connect 4 0 1 0;
#X restore 18 473 pd pinMode_______;
#X text 137 229 ==;
#X text 137 253 ==;
#X text 137 276 ==;
#X text 137 299 ==;
#X text 137 321 ==;
#X text 15 140 NOTE:;
#X obj 9 185 cnv 1 500 1 empty empty empty 20 12 0 14 -1 -66577 0;
#X obj 9 354 cnv 1 500 1 empty empty empty 20 12 0 14 -1 -66577 0;
#X text 15 198 LIST OF AVAILABLE PIN MODES;
#X msg 18 500;
#X obj 16 527 cnv 15 98 21 empty empty empty 20 12 0 14 -261234 -66577
0;
#X obj 18 529 send \$0-arduino;
#X text 16 156 Each pin may support only a subset of the available
modes.;
#X connect 19 0 27 0;
#X connect 26 0 27 1;
#X connect 27 0 37 0;
#X connect 37 0 39 0;
#X restore 279 295 pd PIN_MODES;
#X text 55 9 basicly this is a slighly altered version of the helpfile
;
#X msg 156 263 pinMode 13 output;
#X text 277 263 5 set pin 13 to output (== internal led);
#X msg 157 347 digital 13 \$1;
#X obj 157 329 tgl 15 0 empty empty empty 0 -6 0 8 -262144 -1 -1 0
1;
#X text 272 347 6 toggle pin 13 on and off;
#X msg 162 397 pinMode 12 output;
#N canvas 624 515 450 300 12onoff 0;
#X obj 139 119 tgl 15 0 empty empty empty 0 -6 0 8 -262144 -258113
-1 0 1;
#X msg 138 169 digital 12 \$1;
#X obj 104 145 metro 500;
#X obj 104 116 tgl 20 0 empty empty empty 17 7 0 10 -262144 -1 -1 0
1;
#X obj 138 190 outlet;
#X connect 0 0 1 0;
#X connect 1 0 4 0;
#X connect 2 0 0 0;
#X connect 3 0 2 0;
#X coords 0 -1 1 1 60 40 1 100 100;
#X restore 166 428 pd 12onoff;
#X text 278 446 9 try to understabnd this;
#X msg 171 526 pinMode 19 analog;
#X msg 173 487 analogMapping;
#X text 277 486 10 check mapping;
#X obj 172 576 route analog;
#X obj 172 600 route 5;
#X text 300 573 12 get analog data;
#X text 296 523 11 set pin analog 5 to input (analog 0 = pin 14);
#X text 278 398 8 toggle pin 12 on and off;
#X text 277 372 7 connect a led (long foot to pin 12 \, short to ground
;
#X text 302 608 13 get pin 5;
#X floatatom 173 625 5 0 0 0 - - -, f 5;
#X floatatom 263 674 5 0 0 0 - - -, f 5;
#X obj 174 647 - 0.9;
#X obj 262 652 expr ($f1 - 0.9)*1000;
#X obj 175 673 * 1000;
#X floatatom 175 698 5 0 0 0 - - -, f 5;
#X obj 179 722 hsl 128 15 0 127 0 0 empty empty empty -2 -8 0 10 -262144
-1 -1 1105 1;
#X obj 266 694 hsl 128 15 0 127 0 0 empty empty empty -2 -8 0 10 -262144
-1 -1 1105 1;
#X connect 0 0 24 0;
#X connect 1 0 0 0;
#X connect 2 0 0 0;
#X connect 4 0 0 0;
#X connect 5 0 0 0;
#X connect 6 0 2 0;
#X connect 13 0 0 0;
#X connect 15 0 0 0;
#X connect 16 0 15 0;
#X connect 18 0 0 0;
#X connect 19 0 0 0;
#X connect 21 0 0 0;
#X connect 22 0 0 0;
#X connect 24 0 25 0;
#X connect 25 0 31 0;
#X connect 31 0 33 0;
#X connect 31 0 34 0;
#X connect 32 0 38 0;
#X connect 33 0 35 0;
#X connect 34 0 32 0;
#X connect 35 0 36 0;
#X connect 36 0 37 0;
