#N canvas 129 34 851 515 16;
#X obj 191 300 readsf~;
#X obj 191 335 dac~;
#X obj 194 213 t b a;
#X msg 193 249 start;
#X obj 372 219 loadbang;
#X text 387 163 moseclick plays file;
#X text 395 145 put your sound here;
#X msg 368 279 \; pd dsp \$1;
#X obj 367 259 tgl 15 0 empty empty empty 17 7 0 10 -262144 -1 -1 1
1;
#X obj 216 39 MouseState;
#X msg 214 155 open ./fileb.wav;
#X msg 88 232 stop;
#X obj 217 78 select 1 0;
#X connect 0 0 1 0;
#X connect 0 0 1 1;
#X connect 2 0 3 0;
#X connect 2 1 0 0;
#X connect 3 0 0 0;
#X connect 4 0 8 0;
#X connect 8 0 7 0;
#X connect 9 0 12 0;
#X connect 10 0 2 0;
#X connect 11 0 0 0;
#X connect 12 0 10 0;
#X connect 12 1 11 0;
