#N canvas 48 23 664 519 16;
#X obj 211 473 dac~;
#X obj 162 378 readsf~;
#X msg 586 284 1;
#X msg 586 334 0;
#X msg 207 253 open ./sample1.wav;
#X obj 361 428 s eof;
#X obj 313 96 r eof;
#X obj 571 123 delay 2;
#X obj 586 245 spigot;
#X obj 616 198 tgl 25 0 empty empty empty 17 7 0 10 -262144 -1 -1 1
1;
#X text 487 198 loop on off;
#X obj 571 82 r eof;
#X obj 44 172 bng 25 250 50 0 empty empty empty 17 7 0 10 -262144 -1
-1;
#X obj 44 202 t b b;
#X msg 47 299 1;
#X msg 134 304 open ./sample2.wav;
#X obj 143 170 bng 25 250 50 0 empty empty empty 17 7 0 10 -262144
-1 -1;
#X obj 143 200 t b b;
#X obj 106 33 key;
#X floatatom 26 64 5 0 0 0 - - -;
#X obj 19 102 print;
#X obj 214 168 bng 25 250 50 0 empty empty empty 17 7 0 10 -262144
-1 -1;
#X obj 214 198 t b b;
#X msg 295 197 open ./sample3.wav;
#X text 155 53 triggered by keys 1 to 3;
#X obj 92 95 select 49 50 51 32;
#X connect 1 0 0 0;
#X connect 1 0 0 1;
#X connect 1 1 5 0;
#X connect 2 0 1 0;
#X connect 3 0 1 0;
#X connect 4 0 1 0;
#X connect 7 0 8 0;
#X connect 8 0 2 0;
#X connect 9 0 8 1;
#X connect 11 0 7 0;
#X connect 12 0 13 0;
#X connect 13 0 14 0;
#X connect 13 1 15 0;
#X connect 14 0 1 0;
#X connect 15 0 1 0;
#X connect 16 0 17 0;
#X connect 17 0 14 0;
#X connect 17 1 4 0;
#X connect 18 0 19 0;
#X connect 18 0 20 0;
#X connect 18 0 25 0;
#X connect 21 0 22 0;
#X connect 22 0 14 0;
#X connect 22 1 23 0;
#X connect 23 0 1 0;
#X connect 25 0 12 0;
#X connect 25 1 16 0;
#X connect 25 2 21 0;
#X connect 25 3 9 0;
