#N canvas 182 29 1055 648 16;
#X obj 167 93 key;
#X obj 490 88 keyup;
#X obj 166 131 select 113 119 101 114 116;
#X obj 489 141 select 113 119 101 114 116;
#N canvas 0 23 450 300 synth 0;
#X obj 119 141 phasor~;
#X obj 120 183 *~;
#X obj 120 232 outlet~;
#X obj 121 91 mtof;
#X obj 120 46 inlet;
#X obj 234 150 line;
#X msg 235 115 \$1 50;
#X obj 236 46 inlet;
#X text 275 227 test test;
#X connect 0 0 1 0;
#X connect 1 0 2 0;
#X connect 3 0 0 0;
#X connect 4 0 3 0;
#X connect 5 0 1 1;
#X connect 6 0 5 0;
#X connect 7 0 6 0;
#X restore 167 265 pd synth;
#N canvas 0 23 450 300 synth 0;
#X obj 119 141 phasor~;
#X obj 120 183 *~;
#X obj 120 232 outlet~;
#X obj 121 91 mtof;
#X obj 120 46 inlet;
#X obj 234 150 line;
#X msg 235 115 \$1 50;
#X obj 236 46 inlet;
#X connect 0 0 1 0;
#X connect 1 0 2 0;
#X connect 3 0 0 0;
#X connect 4 0 3 0;
#X connect 5 0 1 1;
#X connect 6 0 5 0;
#X connect 7 0 6 0;
#X restore 312 271 pd synth;
#X msg 149 228 50;
#X msg 219 224 1;
#X msg 269 221 0, f 2;
#X msg 380 228 1;
#X msg 428 219 0, f 2;
#X msg 308 226 51;
#N canvas 0 23 450 300 synth 0;
#X obj 119 141 phasor~;
#X obj 120 183 *~;
#X obj 120 232 outlet~;
#X obj 121 91 mtof;
#X obj 120 46 inlet;
#X obj 234 150 line;
#X msg 235 115 \$1 50;
#X obj 236 46 inlet;
#X connect 0 0 1 0;
#X connect 1 0 2 0;
#X connect 3 0 0 0;
#X connect 4 0 3 0;
#X connect 5 0 1 1;
#X connect 6 0 5 0;
#X connect 7 0 6 0;
#X restore 218 353 pd synth;
#N canvas 5 23 450 300 synth 0;
#X obj 119 141 phasor~;
#X obj 120 183 *~;
#X obj 120 232 outlet~;
#X obj 121 91 mtof;
#X obj 120 46 inlet;
#X obj 234 150 line;
#X msg 235 115 \$1 50;
#X obj 236 46 inlet;
#X connect 0 0 1 0;
#X connect 1 0 2 0;
#X connect 3 0 0 0;
#X connect 4 0 3 0;
#X connect 5 0 1 1;
#X connect 6 0 5 0;
#X connect 7 0 6 0;
#X restore 363 359 pd synth;
#X msg 270 312 1;
#X msg 320 309 0, f 2;
#X msg 431 316 1;
#X msg 479 307 0, f 2;
#X msg 200 316 53;
#X msg 359 314 54;
#X obj 794 358 violosc~;
#X msg 844 294 1;
#X msg 892 285 0, f 2;
#X msg 772 292 90;
#X text 460 360 <- subpatch is saved with the mother patch;
#X text 650 357 abstraction-> lives in its own file;
#X obj 527 584 dac~;
#X connect 0 0 2 0;
#X connect 1 0 3 0;
#X connect 2 0 6 0;
#X connect 2 0 7 0;
#X connect 2 1 11 0;
#X connect 2 1 9 0;
#X connect 2 2 18 0;
#X connect 2 2 14 0;
#X connect 2 3 19 0;
#X connect 2 3 16 0;
#X connect 2 4 23 0;
#X connect 2 4 21 0;
#X connect 3 0 8 0;
#X connect 3 1 10 0;
#X connect 3 2 15 0;
#X connect 3 3 17 0;
#X connect 3 4 22 0;
#X connect 4 0 26 0;
#X connect 5 0 26 1;
#X connect 6 0 4 0;
#X connect 7 0 4 1;
#X connect 8 0 4 1;
#X connect 9 0 5 1;
#X connect 10 0 5 1;
#X connect 11 0 5 0;
#X connect 12 0 26 0;
#X connect 13 0 26 1;
#X connect 14 0 12 1;
#X connect 15 0 12 1;
#X connect 16 0 13 1;
#X connect 17 0 13 1;
#X connect 18 0 12 0;
#X connect 19 0 13 0;
#X connect 20 0 26 1;
#X connect 20 0 26 0;
#X connect 21 0 20 1;
#X connect 22 0 20 1;
#X connect 23 0 20 0;
