#N canvas 42 72 784 531 16;
#X obj 41 407 dac~;
#X obj 38 172 osc~ 440;
#X obj 216 72 phasor~ 440;
#X obj 348 101 noise~;
#N canvas 0 23 450 300 controlexamples 0;
#X floatatom 51 159 5 0 0 0 - - -;
#X floatatom 49 231 5 0 0 0 - - -;
#X floatatom 158 158 5 0 0 0 - - -;
#X floatatom 60 33 0 0 0 2 Examplenumber - -;
#X obj 62 84 print;
#X text 125 84 printing to pd window;
#X obj 153 233 trigger;
#N canvas 0 23 450 300 multiply 0;
#X obj 82 158 * 5;
#X obj 164 87 t b f;
#X obj 37 37 inlet;
#X obj 235 41 inlet;
#X obj 84 215 outlet;
#X connect 0 0 4 0;
#X connect 1 0 0 0;
#X connect 1 1 0 1;
#X connect 2 0 0 0;
#X connect 3 0 1 0;
#X restore 52 195 pd multiply;
#X text 190 194 <-- subpatch;
#X connect 0 0 7 0;
#X connect 2 0 7 1;
#X connect 3 0 4 0;
#X connect 7 0 1 0;
#X restore 564 35 pd controlexamples;
#X obj 39 304 *~ 0.3;
#X obj 145 64 vsl 15 128 0 127 0 0 empty empty Volume -10 -9 0 10 -191407
-258113 -1 3000 1;
#X obj 149 232 / 127;
#X obj 264 125 vsl 15 128 0 127 0 1 empty empty Volume -10 -9 0 10
-191407 -258113 -1 0 1;
#X obj 264 273 / 127;
#X obj 450 132 vsl 15 128 0 127 0 0 empty empty Volume -10 -9 0 10
-191407 -258113 -1 0 1;
#X obj 450 280 / 127;
#X obj 145 310 *~;
#X obj 281 345 *~;
#X floatatom 39 127 5 0 0 0 - - -;
#X msg 63 204 15000;
#X obj 46 19 hsl 128 15 0 127 0 0 empty empty empty -2 -8 0 10 -262144
-1 -1 0 1;
#X obj 39 75 mtof;
#X obj 238 8 loadbang;
#X msg 297 41 0;
#X msg 238 37 30;
#X msg 540 135 \; pd dsp 1;
#X msg 543 197 \; pd dsp 0;
#X text 539 102 turning dsp on and off;
#X msg 549 300 \; pd dsp \$1;
#X obj 548 271 tgl 20 0 empty empty empty 17 7 0 10 -262144 -1 -1 1
1;
#X msg 356 39 1;
#X obj 302 151 hsl 128 15 0 127 0 0 empty empty empty -2 -8 0 10 -262144
-1 -1 0 1;
#X obj 342 185 mtof;
#X obj 315 219 hip~;
#X floatatom 380 226 5 0 0 0 - - -;
#X connect 1 0 5 0;
#X connect 2 0 12 0;
#X connect 3 0 29 0;
#X connect 5 0 0 0;
#X connect 5 0 0 1;
#X connect 6 0 7 0;
#X connect 7 0 5 1;
#X connect 8 0 9 0;
#X connect 9 0 12 1;
#X connect 10 0 11 0;
#X connect 11 0 13 1;
#X connect 12 0 0 0;
#X connect 12 0 0 1;
#X connect 13 0 0 1;
#X connect 13 0 0 0;
#X connect 14 0 1 0;
#X connect 15 0 1 0;
#X connect 16 0 17 0;
#X connect 17 0 14 0;
#X connect 18 0 20 0;
#X connect 18 0 19 0;
#X connect 18 0 26 0;
#X connect 19 0 8 0;
#X connect 19 0 10 0;
#X connect 20 0 6 0;
#X connect 25 0 24 0;
#X connect 26 0 25 0;
#X connect 27 0 28 0;
#X connect 28 0 29 1;
#X connect 28 0 30 0;
#X connect 29 0 13 0;
