#N canvas 7 23 744 555 16;
#X obj 107 328 arduino;
#X msg 124 67 open 1;
#X msg 193 155 pinMode 13 1;
#X msg 181 125 pinMode 13 output;
#X msg 260 233 digital 13 0;
#X msg 260 201 digital 13 1;
#X msg 256 309 close;
#X msg 511 473 digital 13 \$1;
#X obj 509 451 tgl 15 0 empty empty empty 17 7 0 10 -262144 -1 -1 0
1;
#X obj 509 413 metro 500;
#X obj 509 385 tgl 15 0 empty empty empty 17 7 0 10 -262144 -1 -1 0
1;
#X obj 158 374 print;
#X msg 101 23 devices;
#X text 181 24 1 look whar devices are available;
#X text 195 70 2 open cporrect port;
#X text 333 155 3 setting pin 13 to output;
#X text 395 202 4 turn led on;
#X text 403 230 5 turn led on;
#X msg 329 305 digital 13 0;
#X text 464 274 4 turn led on;
#X text 472 302 5 turn led on;
#X msg 329 273 digital 12 1;
#X msg 458 521 digital 12 \$1;
#X msg 379 343 pinMode 14 analog;
#X obj 56 431 route analog digital;
#X obj 56 472 route 0 1 2 3 4 5;
#X floatatom 58 502 5 0 0 0 - - -;
#X obj 211 703 dac~;
#X obj 208 604 osc~ 440;
#X obj 55 533 * 127;
#X obj 57 576 vsl 15 128 0 127 0 0 empty empty empty 0 -9 0 10 -262144
-1 -1 12700 1;
#X obj 56 721 mtof;
#X msg 383 579 pinMode 19 analog;
#X floatatom 193 502 5 0 0 0 - - -;
#X text 381 608 analog 5 == potentimeter input;
#X obj 212 655 *~;
#X text 254 653 controlling volume;
#X connect 0 0 24 0;
#X connect 0 1 11 0;
#X connect 1 0 0 0;
#X connect 2 0 0 0;
#X connect 4 0 0 0;
#X connect 5 0 0 0;
#X connect 6 0 0 0;
#X connect 7 0 0 0;
#X connect 8 0 7 0;
#X connect 8 0 22 0;
#X connect 9 0 8 0;
#X connect 10 0 9 0;
#X connect 12 0 0 0;
#X connect 21 0 0 0;
#X connect 22 0 0 0;
#X connect 23 0 0 0;
#X connect 24 0 25 0;
#X connect 25 0 26 0;
#X connect 25 5 33 0;
#X connect 26 0 29 0;
#X connect 28 0 35 0;
#X connect 29 0 30 0;
#X connect 30 0 31 0;
#X connect 31 0 28 0;
#X connect 32 0 0 0;
#X connect 33 0 35 1;
#X connect 35 0 27 0;
#X connect 35 0 27 1;
