#N canvas 2 37 1020 724 16;
#X obj 129 376 r clicked;
#X obj 188 443 r released;
#N canvas 527 29 412 425 getaclick 1;
#X obj 119 125 MouseState;
#X obj 117 202 select 1 0 300;
#X floatatom 118 155 5 0 0 0 - - -;
#X obj 20 251 print clicked;
#X obj 17 283 print released;
#X obj 113 333 s clicked;
#X obj 151 366 s released;
#X msg 118 82 poll;
#X obj 207 261 outlet;
#X connect 0 0 2 0;
#X connect 0 1 8 0;
#X connect 1 0 3 0;
#X connect 1 0 5 0;
#X connect 1 1 4 0;
#X connect 1 1 6 0;
#X connect 2 0 1 0;
#X connect 7 0 0 0;
#X restore -7 41 pd getaclick;
#X text 129 42 <- subpatch;
#X obj 69 658 dac~;
#X obj 72 334 osc~ 400;
#X text 137 397 <.bang comes out;
#X obj 72 579 *~;
#X obj 124 538 line~;
#X obj 199 537 line;
#X msg 125 478 1 10;
#X msg 187 478 0 100;
#X text 253 538 look at the line help !;
#X floatatom -7 205 5 0 0 0 - - -;
#X floatatom -6 74 5 0 0 0 - - -;
#X obj -6 167 + 100;
#X text 51 103 basic scaling;
#X text 66 70 range from 0 to 1024;
#X text 324 95 want to go from 100 to 12thousandsomething;
#X floatatom -6 136 5 0 0 0 - - -;
#X text 56 137 range from 0 to 15thousand;
#X text 64 171 100 offset;
#X text 60 203 from 100 to 12thousandsomething;
#X text 78 308 <. osc~ takes this as hertz;
#X obj -5 104 * 12;
#X obj -187 160 moses 500;
#X floatatom -187 193 5 0 0 0 - - -;
#X floatatom -100 191 5 0 0 0 - - -;
#X text -197 228 moses divides data streams;
#X text -200 249 lower than argumant left output higher than argument
right output;
#X connect 0 0 10 0;
#X connect 1 0 11 0;
#X connect 2 0 14 0;
#X connect 2 0 25 0;
#X connect 5 0 7 0;
#X connect 7 0 4 0;
#X connect 7 0 4 1;
#X connect 8 0 7 1;
#X connect 10 0 8 0;
#X connect 11 0 8 0;
#X connect 13 0 5 0;
#X connect 14 0 24 0;
#X connect 15 0 13 0;
#X connect 19 0 15 0;
#X connect 24 0 19 0;
#X connect 25 0 26 0;
#X connect 25 1 27 0;
