#N canvas 2058 -86 560 577 10;
#X obj 48 55 metro 200;
#X obj 47 34 tgl 15 0 empty empty empty 17 7 0 10 -262144 -1 -1 0 1
;
#X msg 124 103 1;
#X obj 48 78 t b b;
#X obj 124 130 print atoms;
#X obj 48 103 random 256;
#X obj 49 153 repack 2;
#X obj 51 197 unpack f f;
#X floatatom 51 226 5 0 0 0 - - -, f 5;
#X floatatom 108 225 5 0 0 0 - - -, f 5;
#X text 123 152 use the zexy library to pack two following items into
a list;
#X obj 160 197 route 1;
#X floatatom 161 224 5 0 0 0 - - -, f 5;
#X msg 223 197 set \$1 \$2;
#X msg 223 222 1 116;
#X connect 0 0 3 0;
#X connect 1 0 0 0;
#X connect 2 0 4 0;
#X connect 2 0 6 0;
#X connect 3 0 5 0;
#X connect 3 1 2 0;
#X connect 5 0 4 0;
#X connect 5 0 6 0;
#X connect 6 0 7 0;
#X connect 6 0 11 0;
#X connect 6 0 13 0;
#X connect 7 0 8 0;
#X connect 7 1 9 0;
#X connect 11 0 12 0;
#X connect 13 0 14 0;
