#N canvas 0 109 800 555 10;
#X floatatom 34 54 0 0 0 0 - - -;
#X text 241 215 read from the table;
#X text 83 54 <-- frequency (Hz.);
#X floatatom 65 107 0 0 100 0 - - -;
#X obj 65 133 * 441;
#X obj 34 160 *~ 0;
#X obj 34 187 +~ 1;
#X text 110 248 <-- click to display output;
#X obj 34 80 phasor~ 0;
#X msg 65 245 bang;
#X text 110 108 <-- chunk size (100ths of a second);
#X text 80 159 <-- readjust phase for range 0 - (chunk size);
#X text 79 187 <-- add one to avoid beginning of table;
#X obj 35 318 dac~;
#X obj 94 322 adc~ 1;
#X msg 108 349 bang;
#X text 148 350 <-- click here to record your own sample;
#X obj 437 386 soundfiler;
#X msg 437 361 read \$1 cmsarray;
#X obj 95 382 tabwrite~ cmsarray;
#X obj 65 277 tabwrite~ cmsarray-out;
#N canvas 0 0 450 300 (subpatch) 0;
#X array cmsarray-out 44100 float 0;
#X coords 0 1.02 44100 -1.02 200 130 1 0 0;
#X restore 486 187 graph;
#N canvas 0 0 450 300 (subpatch) 0;
#X array cmsarray 44103 float 0;
#X coords 0 1.02 44103 -1.02 200 130 1 0 0;
#X restore 490 19 graph;
#X text 496 156 ---- 44103 samples ----;
#X text 541 321 ---- 1 second ------;
#X obj 438 340 openpanel;
#X obj 437 319 bng 15 250 50 0 empty empty empty 17 7 0 10 -262144
-1 -1;
#X obj 32 214 tabread4~ cmsarray;
#X connect 0 0 8 0;
#X connect 3 0 4 0;
#X connect 4 0 5 1;
#X connect 5 0 6 0;
#X connect 6 0 27 0;
#X connect 8 0 5 0;
#X connect 9 0 20 0;
#X connect 14 0 19 0;
#X connect 15 0 19 0;
#X connect 18 0 17 0;
#X connect 25 0 18 0;
#X connect 26 0 25 0;
#X connect 27 0 13 0;
#X connect 27 0 13 1;
#X connect 27 0 20 0;
