#N canvas 596 44 580 307 10;
#X obj 220 152 readsf~;
#X obj 220 186 dac~;
#X obj 221 39 bng 15 250 50 0 empty empty empty 17 7 0 10 -262144 -1
-1;
#X obj 220 58 openpanel;
#X msg 220 80 open \$1;
#X msg 296 82 1;
#X msg 296 103 0;
#X msg 297 125 print;
#X text 351 80 1 starts playback;
#X text 354 103 0 stops it;
#X obj 493 78 spigot;
#X text 495 101 loop;
#X msg 49 96 open ./sample7.wav;
#X text 42 58 select different samples;
#X msg 49 168 open ./sample6.wav;
#X msg 49 217 open ./sample8.wav 10000;
#X msg 57 267 open ./sample8.wav;
#X connect 0 0 1 0;
#X connect 0 0 1 1;
#X connect 2 0 3 0;
#X connect 3 0 4 0;
#X connect 4 0 0 0;
#X connect 5 0 0 0;
#X connect 6 0 0 0;
#X connect 7 0 0 0;
#X connect 12 0 0 0;
#X connect 14 0 0 0;
#X connect 15 0 0 0;
#X connect 16 0 0 0;
