#N canvas 558 57 1280 1000 10;
#X text 250 341 read from the table;
#X floatatom 74 208 0 0 100 0 - - -;
#X obj 74 259 * 441;
#X obj 43 286 *~ 0;
#X obj 43 313 +~ 1;
#X text 119 374 <-- click to display output;
#X obj 47 179 phasor~ 0;
#X msg 74 371 bang;
#X text 89 285 <-- readjust phase for range 0 - (chunk size);
#X text 88 313 <-- add one to avoid beginning of table;
#X obj 44 444 dac~;
#X obj 54 537 adc~ 1;
#X msg 68 564 bang;
#X text 108 565 <-- click here to record your own sample;
#X obj 396 592 soundfiler;
#N canvas 0 0 450 300 (subpatch) 0;
#X array arraydyn-out 220500 float 0;
#X coords 0 1.02 220499 -1.02 200 130 1 0 0;
#X restore 641 322 graph;
#N canvas 0 0 450 300 (subpatch) 0;
#X array arraydyn 307735 float 0;
#X coords 0 1.02 307734 -1.02 200 130 1 0 0;
#X restore 637 146 graph;
#X obj 397 546 openpanel;
#X obj 396 525 bng 15 250 50 0 empty empty empty 17 7 0 10 -262144
-1 -1;
#X obj 74 403 tabwrite~ arraydyn-out;
#X msg 396 567 read -resize \$1 arraydyn;
#X text 638 279;
#X obj 41 340 tabread4~ arraydyn;
#X obj 395 622 s samplecount;
#X obj 162 31 r samplecount;
#X text 119 233 <-- chunk size (100ths of the sound;
#X obj 75 232 / 100;
#X obj 55 597 tabwrite~ arraydyn;
#X floatatom 116 33 0 0 0 0 - - -;
#X text 652 458 ---- 5 second ------;
#X obj 160 63 / 44100;
#X floatatom 121 65 5 0 0 0 - - -;
#X msg 494 596 read -resize ./sample8.wav arraydyn;
#N canvas 0 23 450 300 rezi 0;
#X obj 97 51 inlet;
#X obj 111 170 outlet;
#X msg 76 104 1;
#X obj 109 130 /;
#X obj 98 75 t b f;
#X connect 0 0 4 0;
#X connect 2 0 3 0;
#X connect 3 0 1 0;
#X connect 4 0 2 0;
#X connect 4 1 3 1;
#X restore 160 88 pd rezi;
#X floatatom 119 90 5 0 0 0 - - -;
#X obj 286 14 vsl 15 128 0 127 0 0 empty empty speed 0 -9 0 10 -262144
-1 -1 11200 1;
#N canvas 0 23 450 300 scale 0;
#X obj 218 18 inlet;
#X obj 180 71 - 64;
#X obj 179 125 outlet;
#X obj 249 97 outlet;
#X obj 179 95 / 21;
#X obj 247 73 expr ($f1-64)/21;
#X connect 0 0 1 0;
#X connect 0 0 5 0;
#X connect 1 0 4 0;
#X connect 4 0 2 0;
#X connect 5 0 3 0;
#X restore 281 156 pd scale;
#X floatatom 241 155 5 0 0 0 - - -;
#X floatatom 343 156 5 0 0 0 - - -;
#X obj 48 150 * 1;
#X obj 83 69 bng 15 250 50 0 empty empty empty 17 7 0 10 -262144 -1
-1;
#X obj 296 190 t b f;
#X obj 405 255 hsl 128 15 0 127 0 0 empty empty empty -2 -8 0 10 -262144
-1 -1 1965 1;
#X obj 400 199 snapshot~;
#X obj 399 175 metro 20;
#X obj 402 154 tgl 15 0 empty empty empty 17 7 0 10 -262144 -1 -1 1
1;
#X obj 403 226 expr $f1/$f2*127;
#X obj 495 202 r samplecount;
#X msg 10 151 0;
#N canvas 0 23 488 344 scratch 0;
#X obj 164 205 line~;
#X obj 162 90 / 127;
#X obj 165 124 *;
#X msg 165 159 \$1 100;
#X obj 162 62 inlet;
#X obj 230 97 r samplecount;
#X obj 165 183 int;
#X obj 163 231 outlet~;
#X obj 255 237 outlet;
#X connect 0 0 7 0;
#X connect 1 0 2 0;
#X connect 2 0 3 0;
#X connect 2 0 8 0;
#X connect 3 0 6 0;
#X connect 4 0 1 0;
#X connect 5 0 2 1;
#X connect 6 0 0 0;
#X restore 388 418 pd scratch;
#X obj 391 394 hsl 128 15 0 127 0 0 empty empty empty -2 -8 0 10 -262144
-1 -1 12700 1;
#X floatatom 443 443 0 0 0 0 - - -;
#X connect 1 0 26 0;
#X connect 2 0 3 1;
#X connect 3 0 4 0;
#X connect 3 0 43 0;
#X connect 4 0 22 0;
#X connect 6 0 3 0;
#X connect 7 0 19 0;
#X connect 11 0 27 0;
#X connect 12 0 27 0;
#X connect 14 0 23 0;
#X connect 17 0 20 0;
#X connect 18 0 17 0;
#X connect 20 0 14 0;
#X connect 22 0 10 0;
#X connect 22 0 10 1;
#X connect 22 0 19 0;
#X connect 24 0 2 1;
#X connect 24 0 28 0;
#X connect 24 0 30 0;
#X connect 26 0 2 0;
#X connect 30 0 31 0;
#X connect 30 0 33 0;
#X connect 32 0 14 0;
#X connect 33 0 34 0;
#X connect 34 0 39 0;
#X connect 35 0 36 0;
#X connect 36 0 37 0;
#X connect 36 1 38 0;
#X connect 36 1 41 0;
#X connect 39 0 6 0;
#X connect 40 0 34 0;
#X connect 41 0 34 0;
#X connect 41 1 39 1;
#X connect 43 0 46 0;
#X connect 44 0 43 0;
#X connect 45 0 44 0;
#X connect 46 0 42 0;
#X connect 47 0 46 1;
#X connect 48 0 6 0;
#X connect 49 1 51 0;
#X connect 50 0 49 0;
